HIERARCHY
ROOT Hips
{
	OFFSET 0.00000 0.00000 0.00000
	CHANNELS 6 Xposition Yposition Zposition Zrotation Yrotation Xrotation 
	JOINT LHipJoint
	{
		OFFSET 0 0 0
		CHANNELS 3 Zrotation Yrotation Xrotation
		JOINT LeftUpLeg
		{
			OFFSET 1.44361 -1.63093 0.70831
			CHANNELS 3 Zrotation Yrotation Xrotation
			JOINT LeftLeg
			{
				OFFSET 2.20103 -6.04728 0.00000
				CHANNELS 3 Zrotation Yrotation Xrotation
				JOINT LeftFoot
				{
					OFFSET 2.54154 -6.98283 0.00000
					CHANNELS 3 Zrotation Yrotation Xrotation
					JOINT LeftToeBase
					{
						OFFSET 0.05971 -0.16406 1.77582
						CHANNELS 3 Zrotation Yrotation Xrotation
						End Site
						{
							OFFSET 0.00000 -0.00000 0.90832
						}
					}
				}
			}
		}
	}
	JOINT RHipJoint
	{
		OFFSET 0 0 0
		CHANNELS 3 Zrotation Yrotation Xrotation
		JOINT RightUpLeg
		{
			OFFSET -1.65838 -1.63093 0.70830
			CHANNELS 3 Zrotation Yrotation Xrotation
			JOINT RightLeg
			{
				OFFSET -2.26926 -6.23475 0.00000
				CHANNELS 3 Zrotation Yrotation Xrotation
				JOINT RightFoot
				{
					OFFSET -2.34808 -6.45129 0.00000
					CHANNELS 3 Zrotation Yrotation Xrotation
					JOINT RightToeBase
					{
						OFFSET -0.18633 -0.51195 1.68539
						CHANNELS 3 Zrotation Yrotation Xrotation
						End Site
						{
							OFFSET -0.00000 -0.00000 0.88927
						}
					}
				}
			}
		}
	}
	JOINT LowerBack
	{
		OFFSET 0 0 0
		CHANNELS 3 Zrotation Yrotation Xrotation
		JOINT Spine
		{
			OFFSET -0.10393 2.01691 0.06920
			CHANNELS 3 Zrotation Yrotation Xrotation
			JOINT Spine1
			{
				OFFSET 0.04092 2.01302 -0.05283
				CHANNELS 3 Zrotation Yrotation Xrotation
				JOINT Neck
				{
					OFFSET 0 0 0
					CHANNELS 3 Zrotation Yrotation Xrotation
					JOINT Neck1
					{
						OFFSET -0.02870 1.58978 -0.03113
						CHANNELS 3 Zrotation Yrotation Xrotation
						JOINT Head
						{
							OFFSET 0.11532 1.54326 -0.29195
							CHANNELS 3 Zrotation Yrotation Xrotation
							End Site
							{
								OFFSET 0.04056 1.59999 -0.09535
							}
						}
					}
				}
				JOINT LeftShoulder
				{
					OFFSET 0 0 0
					CHANNELS 3 Zrotation Yrotation Xrotation
					JOINT LeftArm
					{
						OFFSET 3.30641 1.15764 0.01104
						CHANNELS 3 Zrotation Yrotation Xrotation
						JOINT LeftForeArm
						{
							OFFSET 4.63208 -0.00000 0.00000
							CHANNELS 3 Zrotation Yrotation Xrotation
							JOINT LeftHand
							{
								OFFSET 3.41924 -0.00000 -0.00000
								CHANNELS 3 Zrotation Yrotation Xrotation
								JOINT LeftFingerBase
								{
									OFFSET 0 0 0
									CHANNELS 3 Zrotation Yrotation Xrotation
									JOINT LeftHandIndex1
									{
										OFFSET 0.62537 -0.00000 -0.00000
										CHANNELS 3 Zrotation Yrotation Xrotation
										End Site
										{
											OFFSET 0.50419 -0.00000 -0.00000
										}
									}
								}
								JOINT LThumb
								{
									OFFSET 0 0 0
									CHANNELS 3 Zrotation Yrotation Xrotation
									End Site
									{
										OFFSET 0.51189 -0.00000 0.51189
									}
								}
							}
						}
					}
				}
				JOINT RightShoulder
				{
					OFFSET 0 0 0
					CHANNELS 3 Zrotation Yrotation Xrotation
					JOINT RightArm
					{
						OFFSET -3.78081 1.02180 -0.16609
						CHANNELS 3 Zrotation Yrotation Xrotation
						JOINT RightForeArm
						{
							OFFSET -4.40640 -0.00000 -0.00000
							CHANNELS 3 Zrotation Yrotation Xrotation
							JOINT RightHand
							{
								OFFSET -3.44675 -0.00000 0.00000
								CHANNELS 3 Zrotation Yrotation Xrotation
								JOINT RightFingerBase
								{
									OFFSET 0 0 0
									CHANNELS 3 Zrotation Yrotation Xrotation
									JOINT RightHandIndex1
									{
										OFFSET -0.51367 -0.00000 -0.00000
										CHANNELS 3 Zrotation Yrotation Xrotation
										End Site
										{
											OFFSET -0.41414 -0.00000 -0.00000
										}
									}
								}
								JOINT RThumb
								{
									OFFSET 0 0 0
									CHANNELS 3 Zrotation Yrotation Xrotation
									End Site
									{
										OFFSET -0.42046 -0.00000 0.42046
									}
								}
							}
						}
					}
				}
			}
		}
	}
}
MOTION
Frames: 11
Frame Time: .0083333
8.4223 21.4657 10.6326 -181.1600 10.2841 -168.7720 0.0000 0.0000 0.0000 -7.6720 -18.6663 -61.5403 8.3697 16.3845 53.8836 1.4787 -0.9100 -22.7253 9.9081 -17.3578 -59.1807 0.0000 0.0000 0.0000 20.4657 5.3616 2.4758 -0.8592 -5.9110 16.5264 -1.1479 16.4631 -20.9047 -1.5350 7.8216 -22.1736 -4.9005 4.5349 7.3719 0.4910 6.1450 5.0135 2.7973 3.1268 0.5344 -3.2382 -0.0935 -7.4773 2.7496 -1.4520 21.8544 1.2649 -1.1375 8.0068 -0.0000 0.0000 0.0000 -88.0308 1.5996 8.1206 7.4104 -12.5927 -0.8188 -0.0000 -0.0000 35.5770 28.3776 -18.4239 -9.6884 -7.1250 0.0000 -0.0000 0.1644 9.2424 -0.1359 -0.0000 0.0000 0.0000 92.0241 21.4574 30.3516 -19.5203 30.0601 -5.2890 0.0000 0.0000 1.5623 -16.6396 -34.7733 9.6732 7.1250 -0.0000 -0.0000 21.0302 -64.7328 -10.2547
8.3832 21.5760 10.3667 -181.2440 9.9795 -168.2520 0.0000 0.0000 0.0000 -8.2534 -19.3302 -60.6607 8.3665 16.3823 53.8725 1.6790 -1.8599 -23.9855 9.8137 -17.3037 -58.8638 0.0000 0.0000 0.0000 19.9714 5.3949 2.4914 -0.9142 -6.0922 17.0523 -0.8156 15.6455 -18.2215 -1.8127 8.4646 -24.1344 -5.1865 4.4634 7.3619 0.3952 6.0220 4.9181 2.8621 3.0607 0.4347 -3.8283 -0.3976 -6.4569 3.3479 -1.8816 20.8769 1.5280 -1.3259 7.5212 0.0000 -0.0000 0.0000 -88.0831 0.9442 8.6751 7.4625 -12.6778 -0.8302 -0.0000 -0.0000 35.5900 28.4909 -18.5340 -9.7884 -7.1250 0.0000 -0.0000 0.2248 9.1005 -0.1864 0.0000 -0.0000 0.0000 91.5739 20.3685 28.8989 -19.2515 29.7300 -5.1550 0.0000 0.0000 1.8322 -17.2992 -34.6443 10.0404 7.1250 -0.0000 -0.0000 20.1516 -64.7959 -9.8388
8.3427 21.7001 10.0974 -181.4920 9.7077 -167.8290 0.0000 0.0000 0.0000 -9.2119 -19.7709 -59.4487 8.2273 16.2839 53.3773 1.8153 -2.5393 -24.8063 9.8966 -17.3513 -59.1422 0.0000 0.0000 0.0000 19.2806 5.3875 2.2774 -1.0048 -6.3786 17.8871 -0.4973 14.5901 -15.1876 -2.0811 9.0330 -25.8986 -5.5559 4.4548 7.3465 0.1985 5.9862 4.8641 2.8647 3.0391 0.3777 -3.6757 -0.4980 -6.7427 3.6549 -2.0806 20.8984 1.5856 -1.3718 7.5887 -0.0000 0.0000 0.0000 -88.0288 0.1674 9.5514 7.5921 -12.8895 -0.8588 -0.0000 -0.0000 35.5503 28.1613 -18.3065 -9.5448 -7.1250 0.0000 -0.0000 0.0380 9.4103 -0.0313 -0.0000 0.0000 0.0000 91.2352 19.2640 26.9187 -18.8010 29.1706 -4.9335 0.0000 0.0000 2.3323 -17.8244 -34.1766 10.2384 7.1250 -0.0000 -0.0000 19.0911 -64.5060 -9.1744
8.3054 21.8351 9.8286 -181.7080 9.5989 -167.2760 0.0000 0.0000 0.0000 -10.2728 -19.7632 -58.1644 7.9461 16.0794 52.3682 1.9284 -3.4664 -25.4011 9.7630 -17.2744 -58.6933 0.0000 0.0000 0.0000 18.5365 5.4525 1.5246 -1.1481 -6.8037 19.1350 -0.1859 13.3742 -11.5484 -2.1058 9.0831 -26.0556 -6.0278 4.4863 7.1414 0.0299 6.0039 4.7898 2.9624 3.0380 0.3866 -4.2978 -0.7581 -5.8612 4.5360 -2.5195 20.1336 1.9461 -1.5556 7.2131 -0.0000 0.0000 0.0000 -87.9162 -0.4620 11.4178 7.8819 -13.3612 -0.9246 -0.0000 -0.0000 34.3665 27.9796 -18.1152 -9.3795 -7.1250 0.0000 -0.0000 -0.0582 9.6530 0.0476 -0.0000 0.0000 0.0000 90.8983 18.1523 24.6297 -18.1754 28.3812 -4.6323 0.0000 0.0000 3.0992 -18.1931 -34.0237 10.4198 7.1250 -0.0000 -0.0000 18.5235 -64.4638 -8.8743
8.2710 21.9801 9.5604 -181.7960 9.4694 -166.6700 0.0000 0.0000 0.0000 -11.2262 -19.5845 -56.7595 7.5880 15.8077 51.0646 2.0323 -4.5361 -25.9186 9.5578 -17.1536 -57.9999 0.0000 0.0000 0.0000 17.9391 5.5252 0.2906 -1.3726 -7.4143 20.9488 0.0379 11.7247 -7.6730 -2.0327 8.9338 -25.5884 -6.4459 4.4899 6.9145 -0.0617 5.9787 4.6451 3.1111 3.0153 0.3348 -4.1150 -0.7846 -6.0636 4.4950 -2.5703 20.2568 1.8970 -1.5663 7.2896 -0.0000 -0.0000 0.0000 -87.7754 -0.8620 13.9358 8.2952 -14.0302 -1.0225 -0.0000 -0.0000 32.2326 28.0068 -17.8882 -9.2783 -7.1250 0.0000 -0.0000 -0.0150 9.8985 0.0122 -0.0000 -0.0000 0.0000 90.5568 16.8441 22.1509 -17.5250 27.5447 -4.3273 0.0000 0.0000 4.0303 -18.2607 -34.2811 10.5283 7.1250 -0.0000 -0.0000 18.6939 -64.7233 -9.0712
8.2361 22.1315 9.2964 -181.8100 9.2314 -166.1260 0.0000 0.0000 0.0000 -12.1136 -19.4302 -55.2182 7.2014 15.4992 49.6321 2.1110 -5.3089 -26.3281 9.5602 -17.1550 -58.0082 0.0000 0.0000 0.0000 17.4932 5.5621 -1.3721 -1.7141 -8.2433 23.4556 0.1511 9.8253 -3.9007 -1.9255 8.7091 -24.8895 -6.8701 4.2523 6.8219 0.0205 5.6306 4.5526 3.4621 2.8313 0.2804 -4.6685 -0.6472 -6.1587 4.8553 -2.3476 20.1509 2.1264 -1.4628 7.2698 0.0000 -0.0000 0.0000 -88.0713 -1.3969 15.2921 8.7510 -14.7626 -1.1358 -0.0000 -0.0000 30.4831 27.8465 -17.8258 -9.1862 -7.1250 0.0000 -0.0000 -0.1125 9.9948 0.0913 0.0000 -0.0000 0.0000 90.0176 15.6688 20.3417 -16.8084 26.6045 -4.0012 0.0000 0.0000 4.7231 -18.3586 -34.7643 10.7150 7.1250 -0.0000 -0.0000 19.0604 -65.2016 -9.4660
8.2009 22.2854 9.0425 -181.5420 8.9659 -165.6040 0.0000 0.0000 0.0000 -12.6299 -19.2111 -53.7139 6.8326 15.1893 48.2383 2.1706 -5.8887 -26.6440 9.6050 -17.1816 -58.1597 0.0000 0.0000 0.0000 17.4237 5.7495 -3.4663 -2.2121 -9.2945 26.7211 0.1638 7.7523 -0.3426 -1.7364 8.2939 -23.6104 -7.1421 3.7200 6.7924 0.3531 4.9184 4.6452 4.0250 2.4614 0.4245 -5.7264 -0.2832 -6.8787 5.1937 -1.6697 20.1784 2.4728 -1.1608 7.3809 0.0000 -0.0000 0.0000 -88.7975 -2.2393 15.6105 9.2634 -15.5792 -1.2699 -0.0000 -0.0000 28.8292 27.6288 -18.0302 -9.2025 -7.1250 0.0000 -0.0000 -0.2768 9.8068 0.2256 0.0000 -0.0000 0.0000 89.2305 14.9660 19.6262 -15.9740 25.4854 -3.6348 0.0000 0.0000 5.3251 -19.1246 -35.6214 11.4181 7.1250 -0.0000 -0.0000 19.0627 -66.2165 -9.9118
8.1677 22.4395 8.8020 -181.1930 8.6867 -165.1240 0.0000 0.0000 0.0000 -12.9597 -19.0241 -52.1670 6.4526 14.8530 46.7722 2.2145 -6.4871 -26.8635 9.5428 -17.1446 -57.9490 0.0000 0.0000 0.0000 17.4970 6.1075 -5.8817 -2.8796 -10.4976 30.6037 0.0817 5.2249 3.2860 -1.3715 7.4115 -20.9405 -6.7884 3.9453 6.7386 0.0767 5.2064 4.3814 3.5103 2.6186 0.1945 -4.5907 -0.4993 -6.2367 5.1497 -2.1632 19.8860 2.2238 -1.3318 7.1891 0.0000 0.0000 0.0000 -87.8088 -2.4387 19.4252 9.9248 -16.6219 -1.4534 -0.0000 -0.0000 26.1124 27.5336 -18.0039 -9.1533 -7.1250 0.0000 -0.0000 -0.3359 9.8518 0.2735 0.0000 0.0000 0.0000 89.5744 13.3012 16.1112 -15.2945 24.5547 -3.3474 0.0000 0.0000 6.6686 -19.5316 -36.3375 11.8706 7.1250 -0.0000 -0.0000 19.3747 -66.9989 -10.4250
8.1352 22.5869 8.5698 -181.2780 8.4139 -164.8350 0.0000 0.0000 0.0000 -13.8090 -19.0195 -50.3488 6.0417 14.4687 45.1490 2.2324 -7.2559 -26.9152 9.3738 -17.0424 -57.3742 0.0000 0.0000 0.0000 17.1568 6.7924 -8.8438 -3.8592 -11.9707 35.6284 -0.0224 3.0208 5.3780 -1.4326 7.5678 -21.4088 -6.7989 4.1289 6.7550 -0.3034 5.4321 4.1977 3.0944 2.7414 0.0042 -3.5693 -0.7314 -5.7136 5.1967 -2.6477 19.5691 2.0280 -1.4985 7.0087 0.0000 -0.0000 0.0000 -86.8334 -2.7365 22.9808 10.7487 -17.9021 -1.6979 -0.0000 -0.0000 23.7221 27.3757 -17.6643 -8.9296 -7.1250 0.0000 -0.0000 -0.4022 10.2515 0.3242 0.0000 -0.0000 0.0000 89.9134 11.7323 12.7114 -14.6404 23.6428 -3.0803 0.0000 0.0000 8.0029 -19.4523 -36.4425 11.8486 7.1250 -0.0000 -0.0000 19.5891 -67.0723 -10.5767
8.1033 22.7241 8.3412 -181.3940 8.1310 -164.6620 0.0000 0.0000 0.0000 -14.6933 -19.1081 -48.4244 5.6518 14.0822 43.5676 2.2459 -8.0000 -26.9590 9.1755 -16.9194 -56.6953 0.0000 0.0000 0.0000 16.8216 7.4729 -11.7875 -4.9314 -13.3061 40.5254 -0.1336 0.6303 7.1642 -1.6550 8.1071 -23.0397 -7.3143 3.5907 6.7401 -0.1231 4.7022 4.2929 3.6344 2.3637 0.1381 -4.0549 -0.3482 -6.1872 5.1591 -2.0113 19.6988 2.1476 -1.2171 7.1072 0.0000 -0.0000 0.0000 -87.1133 -3.4417 23.7508 11.5487 -19.1244 -1.9519 -0.0000 -0.0000 21.9544 27.1569 -17.3302 -8.6879 -7.1250 0.0000 -0.0000 -0.5105 10.6543 0.4073 0.0000 -0.0000 0.0000 89.2778 10.7314 12.0799 -13.9290 22.6331 -2.8007 0.0000 0.0000 8.9944 -19.9130 -36.4377 12.1426 7.1250 -0.0000 -0.0000 19.0344 -67.2049 -10.3253
8.0742 22.8512 8.1211 -181.4430 8.0601 -164.6120 0.0000 0.0000 0.0000 -15.4780 -19.0233 -46.4236 5.2620 13.6729 41.9427 2.2819 -8.3450 -27.1687 9.0675 -16.8510 -56.3233 0.0000 0.0000 0.0000 16.5879 8.3649 -14.7264 -6.1076 -14.5318 45.4120 -0.1816 -1.8111 7.6215 -1.9857 8.8362 -25.2842 -7.7937 3.0888 6.7320 0.0467 4.0347 4.4677 4.1410 2.0144 0.3660 -4.5008 0.0341 -6.9864 5.1068 -1.3801 20.0891 2.2599 -0.9367 7.3467 -0.0000 -0.0000 0.0000 -87.2560 -4.5714 24.3694 12.1320 -20.0022 -2.1472 -0.0000 -0.0000 20.4584 27.2923 -17.2833 -8.7152 -7.1250 0.0000 -0.0000 -0.4168 10.6840 0.3323 -0.0000 -0.0000 0.0000 88.6993 9.7517 11.5815 -13.3186 21.7522 -2.5701 0.0000 0.0000 10.2606 -20.2731 -36.1805 12.3011 7.1250 -0.0000 -0.0000 18.3118 -67.0731 -9.8676
